<svg width="600" height="400" xmlns="http://www.w3.org/2000/svg" xmlns:xlink="http://www.w3.org/1999/xlink" version="1.1" baseProfile="full" viewBox="0 0 600 400">
<rect width="600" height="400" x="0" y="0" fill="none"></rect>
<path d="M60 330.5L540 330.5" fill="none" pointer-events="visible" stroke="#E0E6F1" class="zr0-cls-0"></path>
<path d="M60 276.5L540 276.5" fill="none" pointer-events="visible" stroke="#E0E6F1" class="zr0-cls-0"></path>
<path d="M60 222.5L540 222.5" fill="none" pointer-events="visible" stroke="#E0E6F1" class="zr0-cls-0"></path>
<path d="M60 168.5L540 168.5" fill="none" pointer-events="visible" stroke="#E0E6F1" class="zr0-cls-0"></path>
<path d="M60 114.5L540 114.5" fill="none" pointer-events="visible" stroke="#E0E6F1" class="zr0-cls-0"></path>
<path d="M60 60.5L540 60.5" fill="none" pointer-events="visible" stroke="#E0E6F1" class="zr0-cls-0"></path>
<text dominant-baseline="central" text-anchor="end" style="font-size:12px;font-family:sans-serif;" transform="translate(20 195)" fill="#6E7079">µs</text>
<path d="M60 330.5L540 330.5" fill="none" pointer-events="visible" stroke="#6E7079" stroke-linecap="round" class="zr0-cls-0"></path>
<path d="M60.5 330L60.5 335" fill="none" pointer-events="visible" stroke="#6E7079" class="zr0-cls-0"></path>
<path d="M156.5 330L156.5 335" fill="none" pointer-events="visible" stroke="#6E7079" class="zr0-cls-0"></path>
<path d="M252.5 330L252.5 335" fill="none" pointer-events="visible" stroke="#6E7079" class="zr0-cls-0"></path>
<path d="M348.5 330L348.5 335" fill="none" pointer-events="visible" stroke="#6E7079" class="zr0-cls-0"></path>
<path d="M444.5 330L444.5 335" fill="none" pointer-events="visible" stroke="#6E7079" class="zr0-cls-0"></path>
<path d="M540.5 330L540.5 335" fill="none" pointer-events="visible" stroke="#6E7079" class="zr0-cls-0"></path>
<text dominant-baseline="central" text-anchor="end" style="font-size:12px;font-family:sans-serif;" transform="translate(52 330)" fill="#6E7079">0</text>
<text dominant-baseline="central" text-anchor="end" style="font-size:12px;font-family:sans-serif;" transform="translate(52 276)" fill="#6E7079">200</text>
<text dominant-baseline="central" text-anchor="end" style="font-size:12px;font-family:sans-serif;" transform="translate(52 222)" fill="#6E7079">400</text>
<text dominant-baseline="central" text-anchor="end" style="font-size:12px;font-family:sans-serif;" transform="translate(52 168)" fill="#6E7079">600</text>
<text dominant-baseline="central" text-anchor="end" style="font-size:12px;font-family:sans-serif;" transform="translate(52 114)" fill="#6E7079">800</text>
<text dominant-baseline="central" text-anchor="end" style="font-size:12px;font-family:sans-serif;" transform="translate(52 60)" fill="#6E7079">1,000</text>
<text dominant-baseline="central" text-anchor="middle" style="font-size:12px;font-family:sans-serif;" y="6" transform="translate(108 338)" fill="#6E7079">native</text>
<text dominant-baseline="central" text-anchor="middle" style="font-size:12px;font-family:sans-serif;" y="6" transform="translate(204 338)" fill="#6E7079">kvmserver</text>
<text dominant-baseline="central" text-anchor="middle" style="font-size:12px;font-family:sans-serif;" y="18" transform="translate(204 338)" fill="#6E7079">ephemeral</text>
<text dominant-baseline="central" text-anchor="middle" style="font-size:12px;font-family:sans-serif;" y="30" transform="translate(204 338)" fill="#6E7079">threads=1</text>
<text dominant-baseline="central" text-anchor="middle" style="font-size:12px;font-family:sans-serif;" y="6" transform="translate(300 338)" fill="#6E7079">kvmserver</text>
<text dominant-baseline="central" text-anchor="middle" style="font-size:12px;font-family:sans-serif;" y="18" transform="translate(300 338)" fill="#6E7079">ephemeral</text>
<text dominant-baseline="central" text-anchor="middle" style="font-size:12px;font-family:sans-serif;" y="30" transform="translate(300 338)" fill="#6E7079">threads=2</text>
<text dominant-baseline="central" text-anchor="middle" style="font-size:12px;font-family:sans-serif;" y="6" transform="translate(396 338)" fill="#6E7079">kvmserver</text>
<text dominant-baseline="central" text-anchor="middle" style="font-size:12px;font-family:sans-serif;" y="18" transform="translate(396 338)" fill="#6E7079">ephemeral</text>
<text dominant-baseline="central" text-anchor="middle" style="font-size:12px;font-family:sans-serif;" y="30" transform="translate(396 338)" fill="#6E7079">threads=4</text>
<text dominant-baseline="central" text-anchor="middle" style="font-size:12px;font-family:sans-serif;" y="6" transform="translate(492 338)" fill="#6E7079">kvmserver</text>
<text dominant-baseline="central" text-anchor="middle" style="font-size:12px;font-family:sans-serif;" y="18" transform="translate(492 338)" fill="#6E7079">ephemeral</text>
<text dominant-baseline="central" text-anchor="middle" style="font-size:12px;font-family:sans-serif;" y="30" transform="translate(492 338)" fill="#6E7079">threads=2</text>
<text dominant-baseline="central" text-anchor="middle" style="font-size:12px;font-family:sans-serif;" y="42" transform="translate(492 338)" fill="#6E7079">no-tail</text>
<path d="M71 330l21.7 0l0 -167.1l-21.7 0Z" fill="#5470c6" ecmeta_series_index="0" ecmeta_data_index="0" ecmeta_ssr_type="chart" class="zr0-cls-1"></path>
<path d="M167 330l21.7 0l0 -186l-21.7 0Z" fill="#5470c6" ecmeta_series_index="0" ecmeta_data_index="1" ecmeta_ssr_type="chart" class="zr0-cls-1"></path>
<path d="M263 330l21.7 0l0 -190.1l-21.7 0Z" fill="#5470c6" ecmeta_series_index="0" ecmeta_data_index="2" ecmeta_ssr_type="chart" class="zr0-cls-1"></path>
<path d="M359 330l21.7 0l0 -191.7l-21.7 0Z" fill="#5470c6" ecmeta_series_index="0" ecmeta_data_index="3" ecmeta_ssr_type="chart" class="zr0-cls-1"></path>
<path d="M455 330l21.7 0l0 -171.2l-21.7 0Z" fill="#5470c6" ecmeta_series_index="0" ecmeta_data_index="4" ecmeta_ssr_type="chart" class="zr0-cls-1"></path>
<path d="M97.1 330l21.7 0l0 -180.9l-21.7 0Z" fill="#91cc75" ecmeta_series_index="1" ecmeta_data_index="0" ecmeta_ssr_type="chart" class="zr0-cls-2"></path>
<path d="M193.1 330l21.7 0l0 -192.2l-21.7 0Z" fill="#91cc75" ecmeta_series_index="1" ecmeta_data_index="1" ecmeta_ssr_type="chart" class="zr0-cls-2"></path>
<path d="M289.1 330l21.7 0l0 -194.9l-21.7 0Z" fill="#91cc75" ecmeta_series_index="1" ecmeta_data_index="2" ecmeta_ssr_type="chart" class="zr0-cls-2"></path>
<path d="M385.1 330l21.7 0l0 -196.6l-21.7 0Z" fill="#91cc75" ecmeta_series_index="1" ecmeta_data_index="3" ecmeta_ssr_type="chart" class="zr0-cls-2"></path>
<path d="M481.1 330l21.7 0l0 -178.7l-21.7 0Z" fill="#91cc75" ecmeta_series_index="1" ecmeta_data_index="4" ecmeta_ssr_type="chart" class="zr0-cls-2"></path>
<path d="M123.2 330l21.7 0l0 -221.4l-21.7 0Z" fill="#fac858" ecmeta_series_index="2" ecmeta_data_index="0" ecmeta_ssr_type="chart" class="zr0-cls-3"></path>
<path d="M219.2 330l21.7 0l0 -213.3l-21.7 0Z" fill="#fac858" ecmeta_series_index="2" ecmeta_data_index="1" ecmeta_ssr_type="chart" class="zr0-cls-3"></path>
<path d="M315.2 330l21.7 0l0 -203.8l-21.7 0Z" fill="#fac858" ecmeta_series_index="2" ecmeta_data_index="2" ecmeta_ssr_type="chart" class="zr0-cls-3"></path>
<path d="M411.2 330l21.7 0l0 -204.7l-21.7 0Z" fill="#fac858" ecmeta_series_index="2" ecmeta_data_index="3" ecmeta_ssr_type="chart" class="zr0-cls-3"></path>
<path d="M507.2 330l21.7 0l0 -194.7l-21.7 0Z" fill="#fac858" ecmeta_series_index="2" ecmeta_data_index="4" ecmeta_ssr_type="chart" class="zr0-cls-3"></path>
<path d="M-5 -5l180.5 0l0 24l-180.5 0Z" transform="translate(214.76 35)" fill="rgb(0,0,0)" fill-opacity="0" stroke="#ccc" stroke-width="0" class="zr0-cls-0"></path>
<path d="M3.5 0L21.5 0A3.5 3.5 0 0 1 25 3.5L25 10.5A3.5 3.5 0 0 1 21.5 14L3.5 14A3.5 3.5 0 0 1 0 10.5L0 3.5A3.5 3.5 0 0 1 3.5 0" transform="translate(214.76 35)" fill="#5470c6" ecmeta_series_index="0" ecmeta_data_index="0" ecmeta_ssr_type="legend" ecmeta_silent="true" class="zr0-cls-0"></path>
<text dominant-baseline="central" text-anchor="start" style="font-size:12px;font-family:sans-serif;" x="30" y="7" transform="translate(214.76 35)" fill="#333">p50</text>
<path d="M0 0l50.2 0l0 14l-50.2 0Z" transform="translate(214.76 35)" fill="none" pointer-events="visible" ecmeta_series_index="0" ecmeta_data_index="0" ecmeta_ssr_type="legend" class="zr0-cls-4"></path>
<path d="M3.5 0L21.5 0A3.5 3.5 0 0 1 25 3.5L25 10.5A3.5 3.5 0 0 1 21.5 14L3.5 14A3.5 3.5 0 0 1 0 10.5L0 3.5A3.5 3.5 0 0 1 3.5 0" transform="translate(274.92 35)" fill="#91cc75" ecmeta_series_index="1" ecmeta_data_index="1" ecmeta_ssr_type="legend" ecmeta_silent="true" class="zr0-cls-0"></path>
<text dominant-baseline="central" text-anchor="start" style="font-size:12px;font-family:sans-serif;" x="30" y="7" transform="translate(274.92 35)" fill="#333">p90</text>
<path d="M0 0l50.2 0l0 14l-50.2 0Z" transform="translate(274.92 35)" fill="none" pointer-events="visible" ecmeta_series_index="1" ecmeta_data_index="1" ecmeta_ssr_type="legend" class="zr0-cls-4"></path>
<path d="M3.5 0L21.5 0A3.5 3.5 0 0 1 25 3.5L25 10.5A3.5 3.5 0 0 1 21.5 14L3.5 14A3.5 3.5 0 0 1 0 10.5L0 3.5A3.5 3.5 0 0 1 3.5 0" transform="translate(335.08 35)" fill="#fac858" ecmeta_series_index="2" ecmeta_data_index="2" ecmeta_ssr_type="legend" ecmeta_silent="true" class="zr0-cls-0"></path>
<text dominant-baseline="central" text-anchor="start" style="font-size:12px;font-family:sans-serif;" x="30" y="7" transform="translate(335.08 35)" fill="#333">p99</text>
<path d="M0 0l50.2 0l0 14l-50.2 0Z" transform="translate(335.08 35)" fill="none" pointer-events="visible" ecmeta_series_index="2" ecmeta_data_index="2" ecmeta_ssr_type="legend" class="zr0-cls-4"></path>
<path d="M-259 -5l518 0l0 28l-518 0Z" transform="translate(300 5)" fill="rgb(0,0,0)" fill-opacity="0" stroke="#ccc" stroke-width="0" class="zr0-cls-0"></path>
<text dominant-baseline="central" text-anchor="middle" style="font-size:18px;font-family:sans-serif;font-weight:bold;" xml:space="preserve" y="9" transform="translate(300 5)" fill="#464646">Deno React page rendering native vs TinyKVM ephemeral VMs</text>
<style ><![CDATA[
.zr0-cls-0:hover {
pointer-events:none;
}
.zr0-cls-1:hover {
cursor:pointer;
fill:rgba(92,123,217,1);
}
.zr0-cls-2:hover {
cursor:pointer;
fill:rgba(159,224,128,1);
}
.zr0-cls-3:hover {
cursor:pointer;
fill:rgba(255,220,96,1);
}
.zr0-cls-4:hover {
cursor:pointer;
fill:rgba(0,0,0,0);
}

]]>

</style>
</svg>
